<?xml version="1.0" standalone="no"?>
<!DOCTYPE svg PUBLIC "-//W3C//DTD SVG 20010904//EN"
 "http://www.w3.org/TR/2001/REC-SVG-20010904/DTD/svg10.dtd">
<svg version="1.0" xmlns="http://www.w3.org/2000/svg"
 width="300.000000pt" height="300.000000pt" viewBox="0 0 300.000000 300.000000"
 preserveAspectRatio="xMidYMid meet">
<metadata>
Created by potrace 1.14, written by Peter Selinger 2001-2017
</metadata>
<g transform="translate(0.000000,300.000000) scale(0.100000,-0.100000)"
fill="#000000" stroke="none">
<path d="M1338 2110 c-209 -55 -340 -195 -398 -425 -23 -91 -31 -251 -19 -365
10 -88 47 -251 60 -265 5 -5 9 -15 9 -22 0 -21 67 -161 99 -207 39 -56 98
-112 151 -143 37 -21 62 -26 141 -31 l97 -5 -1 -33 c-1 -25 -6 -34 -18 -34
-37 0 -156 -44 -205 -75 -87 -56 -116 -125 -102 -242 2 -12 0 -21 -3 -20 -3 1
-27 -20 -53 -48 -48 -52 -96 -138 -96 -174 0 -20 6 -21 86 -21 l86 0 44 47
c29 31 47 43 51 35 2 -7 10 -18 17 -25 7 -7 18 -22 25 -35 l12 -22 297 0 297
0 33 50 c17 27 32 54 32 60 0 34 89 -27 114 -77 l16 -33 94 0 93 0 -3 33 c-10
86 -94 204 -176 246 -26 13 -28 18 -24 67 9 138 -111 233 -313 248 -41 3 -76
8 -80 11 -3 4 -10 30 -16 60 -11 53 -11 53 20 71 73 42 153 153 191 264 16 46
19 83 18 235 -2 191 -9 370 -18 395 -3 8 -7 33 -10 55 -24 182 -130 360 -243
407 -70 30 -78 31 -158 34 -52 1 -103 -4 -147 -16z"/>
</g>
</svg>
